<svg id="Lag_1" data-name="Lag 1" xmlns="http://www.w3.org/2000/svg" viewBox="0 0 65.65 175.93"><defs><style>.cls-1{fill:none;stroke:#000;stroke-linecap:round;stroke-linejoin:round;stroke-width:2px;}</style></defs><title>pep1</title><path id="Path_1175" data-name="Path 1175" class="cls-1" d="M40.57,30l6,2c2.68,13.49.14,27.25,1.61,40.74C49.25,83,45.11,92.59,47,102.74a87.1,87.1,0,0,1-.53,29.39c-1.34,8.14-2.53,16.42-3.34,24.71-1.48,15,4.54,20.16,20,17.36"/><path id="Path_1178" data-name="Path 1178" class="cls-1" d="M26.55,92.06c-1.34,7.61-2.81,15.09-4,22.7-2.14,13.36,1.07,26.05,4.54,38.74a55.1,55.1,0,0,1,1.6,13.35c.14,6.15-2.67,8.15-8.14,8H11.19"/><path id="Path_1183" data-name="Path 1183" class="cls-1" d="M17.87,38A43,43,0,0,0,2.51,58C-1.37,68.55,2.37,73,12,77.23c3.61,1.6,7.48,2.27,10.69,4.68"/><path id="Path_1187" data-name="Path 1187" class="cls-1" d="M47.92,34A80.13,80.13,0,0,1,63.15,57.46C65,62.14,66.35,67.61,59.41,71c-3.34,1.6-5.88,5.21-8.82,7.88"/><path id="Path_1189" data-name="Path 1189" class="cls-1" d="M19.2,37.29a29.29,29.29,0,0,1,13.36-4.94c6.81-.8,9.07-4.67,10.55-9.75a20.71,20.71,0,0,0-3.2-19.36C37.37,0,34.56.7,31.88,2.57c-9.21,6.54-10.15,17.1-2.67,26,.94,1.07,1.74,2.28,2.67,3.34"/><path id="Path_1191" data-name="Path 1191" class="cls-1" d="M18.53,39.3C26.15,52.12,24,66.28,23.74,80c-.13,10,.27,11.49,10.15,12,3.74.13,7.62,0,11.36,0"/><path id="Path_1201" data-name="Path 1201" class="cls-1" d="M50.59,82c2.53,3.07,5.74,5.61,7.35,9.35"/><path id="Path_1202" data-name="Path 1202" class="cls-1" d="M20.54,82.71c-2.41,2.67-4.94,5.34-7.35,8"/></svg>