<svg id="Lag_1" data-name="Lag 1" xmlns="http://www.w3.org/2000/svg" viewBox="0 0 67 192"><defs><style>.cls-1{fill:none;stroke:#000;stroke-linecap:round;stroke-linejoin:round;stroke-width:2px;}</style></defs><title>pep2</title><path id="Path_1168" data-name="Path 1168" class="cls-1" d="M40.9,183.33c13-.8,15.36-3.61,11.89-16a189.81,189.81,0,0,1-6.68-56.76,52.7,52.7,0,0,0-1.48-18,40.83,40.83,0,0,0-9.88.14c-5.21,1.2-6-1.34-6.81-5.48-2.54-12.41-1.06-25-.39-37.4a35.73,35.73,0,0,0-.14-10.68"/><path id="Path_1171" data-name="Path 1171" class="cls-1" d="M32.22,93.84c-1.34,11.75-2.14,23.64-4.14,35.39a84.13,84.13,0,0,0,.67,30.06,70,70,0,0,1,.66,14,6.19,6.19,0,0,1-5.56,6.76,6.26,6.26,0,0,1-2.32-.22,15.9,15.9,0,0,0-8.68.14"/><path id="Path_1179" data-name="Path 1179" class="cls-1" d="M46.91,35.74c8.55-8.28,10.29-17,5.34-25.38-1.87-3.21-4.14-7.21-8-5.74-4.54,1.87-10.82,2-12.29,9.07a27.53,27.53,0,0,0,4.81,21.37"/><path id="Path_1196" data-name="Path 1196" class="cls-1" d="M16.86,59.11a142.17,142.17,0,0,0,5.88-14c2-6.41,6.14-10.29,12.68-9.22,9.36,1.6,19.24,2.41,26.18,10.29C59.06,51.22,56.92,56.44,54.12,61,49.31,68.46,50.51,77,49.58,85c-.27,3.07,0,5.87-3.48,7.34"/><path id="Path_1197" data-name="Path 1197" class="cls-1" d="M56.93,77.14c0-.26.13-.53,0-.66-2.14-3.21,1.6-8.28-2.67-10.69a25.49,25.49,0,0,0-17.9-2.4,31.88,31.88,0,0,1-9.35.4"/><path id="Path_1198" data-name="Path 1198" class="cls-1" d="M34.22,65.12c4.81,2.94,9,7.35,15.36,6.68"/><path id="Path_1200" data-name="Path 1200" class="cls-1" d="M25.54,63.12c-2.8,0-6,1.48-8-2-1.48-2.67-3.34-4.27-6.68-2.67s-6.54,3.47-6,8"/><path id="Path_1203" data-name="Path 1203" class="cls-1" d="M18.86,63.79c-1.6,2.27-3.07,4.4-4.67,6.68"/></svg>