<svg id="Lag_1" data-name="Lag 1" xmlns="http://www.w3.org/2000/svg" viewBox="0 0 121 194"><defs><style>.cls-1{fill:none;stroke:#000;stroke-linecap:round;stroke-linejoin:round;stroke-width:2px;}</style></defs><title>pep3</title><path id="Path_1169" data-name="Path 1169" class="cls-1" d="M54.08,97.84c-1.34,8.68-2.14,17.49-4.14,26-3.21,14.43-.27,27.65,5.47,40.74.27.67,1.07,1.34,1.34,2C58,171,60.49,175.44,59.28,180c-1.47,5.47-7.34,3.74-11.22,5.34-3.47,1.34-7.08,2.27-10.68,3.34"/><path id="Path_1172" data-name="Path 1172" class="cls-1" d="M44.73,55.09c2.53,6.28,1.2,13,2.67,19.37,1.34,6,1.74,12.16,3.74,18.17,1.34,4.14,3.21,5.34,7,5.34,2.27,0,4.54-.27,4.81,3.34.26,5.61,2.93,10.68,4.67,16,4.81,15.49,2.53,31.12,1.74,46.75-.27,5.34-.13,10.68-.4,16-.14,2.81,1.07,3.88,4,4.15a27.76,27.76,0,0,1,10.68,3.87"/><path id="Path_1176" data-name="Path 1176" class="cls-1" d="M48.07,41.07a23.2,23.2,0,0,0,19.37,3.34c9-2,7.74-1.48,11.75,6.54,2.67,5.21,3.61,11.76,9.22,15.76C93.08,60,94.55,51.09,102,46.55c5.34.13,11.22,4.67,15.49-2"/><path id="Path_1190" data-name="Path 1190" class="cls-1" d="M78.12,53.76C76,64.58,71,74.6,69.84,85.81,69.31,90.62,67.44,96,62.1,98.5"/><path id="Path_1193" data-name="Path 1193" class="cls-1" d="M48.07,39.07c-1.6,5.06-2.41,10.55-4.94,15.22-1.74,3.34-1.87,8-6.28,10a70.73,70.73,0,0,0-17.1-17.5c-4.8,3.07-9.88,4.41-15.22.94"/><path id="Path_1205" data-name="Path 1205" class="cls-1" d="M60.76,7.68C53.14,12,51.54,19.17,51.41,27.05a8.13,8.13,0,0,0,5.21,8.14c6.14,2.81,9.07,2.54,12-2.8s.67-19.9-4-24c-1.07-1.07-2.27-.4-3.34-.67"/></svg>