<svg id="Lag_1" data-name="Lag 1" xmlns="http://www.w3.org/2000/svg" viewBox="0 0 98 197"><defs><style>.cls-1{fill:none;stroke:#000;stroke-linecap:round;stroke-linejoin:round;stroke-width:2px;}</style></defs><title>pep5</title><path id="Path_1181" data-name="Path 1181" class="cls-1" d="M71.51,87.15c8.15-13.76,17.63-27,22.44-43a26.24,26.24,0,0,0-12.42-.53,65.76,65.76,0,0,1-15.36,0C60.43,42.94,54.68,41.21,53,34a15.82,15.82,0,0,0-8,14.43c-.54,12.82-.54,25.64,3.34,38.07A27.72,27.72,0,0,0,57,99.85"/><path id="Path_1184" data-name="Path 1184" class="cls-1" d="M72.85,93.83C69.51,97.57,64.43,97.7,60.16,99c-3.74,1.2-5.07,3.07-4.68,6.81.94,7.88-1.47,15.49-1.47,23.37s1.87,13.89,8.28,17.9c3.87,2.41,4.94,4.94,4.14,9.49-.8,4.4.4,8.94,1.07,13.35,1.47,9.22-1.34,13.09-10.56,15.36-4.67,1.07-9.35,2.27-14,3.34"/><path id="Path_1185" data-name="Path 1185" class="cls-1" d="M68.18,97.84c1.6,6.94-.14,14-1.07,20.7-1.34,10,.13,20.17-1.6,30.05"/><path id="Path_1186" data-name="Path 1186" class="cls-1" d="M77.52,45.08c-3.2,11.48-8.14,22.44-8.81,34.72C68.17,91.29,73.38,96,84.2,92.49"/><path id="Path_1188" data-name="Path 1188" class="cls-1" d="M44.8,43.07l-24,26.05a54.18,54.18,0,0,1-4,4c-5.21,4.41-6.81,3.87-10-2.67l-2-4"/><path id="Path_1194" data-name="Path 1194" class="cls-1" d="M67.51,152.6c4.94,3.61,8,9,11.88,13.49,2.28,2.53,3.48,5.87.14,9.35-2.27,2.4-2.81,6.28-5.48,8.55"/><path id="Path_1206" data-name="Path 1206" class="cls-1" d="M72.18,5.67c-10.68,3.34-17,15.1-12.69,24C62,35.06,66,36.26,70.18,32.25a31.14,31.14,0,0,0,8.28-10.56c3.2-8.41,2.4-11.75-5.48-16"/></svg>