<svg id="Lag_1" data-name="Lag 1" xmlns="http://www.w3.org/2000/svg" viewBox="0 0 59 182"><defs><style>.cls-1{fill:none;stroke:#000;stroke-linecap:round;stroke-linejoin:round;stroke-width:2px;}</style></defs><title>pep6</title><path id="Path_1173" data-name="Path 1173" class="cls-1" d="M21,92.18c-6.41,19.77-7.35,39.54-.81,59.44a48.21,48.21,0,0,1,2.27,14.7c0,5.47-2.27,8.41-7.48,8.54-3.6.14-7.08,1.87-10.68.14"/><path id="Path_1174" data-name="Path 1174" class="cls-1" d="M39.7,92.85A171.1,171.1,0,0,1,38.22,147c-.94,5.47-.67,10.68-1.2,16-.81,8.14,5.2,10.82,10.68,11.35,2.94.27,5.88-.53,8.68.67"/><path id="Path_1180" data-name="Path 1180" class="cls-1" d="M43,97.53a10.63,10.63,0,0,0,4-10.69c-.67-4.14,1.87-7.48,2.67-11.35,2.14-9.35-1.87-17.9-2.94-26.71C46,42,43.71,35.29,42.1,28.21c-4,1.73-5.87,4.81-8.41,7.21-5.88,5.47-9.08,5.47-14.83,0-2.13-2-3.47-5.48-7.74-5.61-1.6,8.55-3.21,17.1-4.94,25.51A49.35,49.35,0,0,1,3.64,64a14.3,14.3,0,0,0,.67,12.56A19.17,19.17,0,0,1,7.38,89.25c-.53,3.47,2.81,4.27,3.47,6.68"/><path id="Path_1182" data-name="Path 1182" class="cls-1" d="M15.65,38.09C20.86,49.44,20.2,61.47,19,73.49c-.4,4.4-.4,9-.66,13.35-.27,3.61,1.2,4.81,4.67,4.68,5.74-.27,11.62,0,18.7,0C39.17,74.82,44,57.32,39,40.09"/><path id="Path_1204" data-name="Path 1204" class="cls-1" d="M25.67,6c-9.88,4.8-11.49,8.14-8.68,16.69,1.6,4.68,3.74,8.42,9.35,8.68s7.88-3.87,9.88-7.48c4-6.94-1.6-16.69-9.88-17.9"/></svg>